# xmcd
#
# Track frame offsets: 
#        150
#        14919
#        35123
#        53155
#        75973
#        93995
#        111509
#        130031
#        143381
#        157146
#
# Disc length: 2363 seconds
#
# Revision: 0
# Processed by: cddbd v1.5.2PL0 Copyright (c) Steve Scherf et al.
# Submitted via: ExactAudioCopy v0.95b3
#
DISCID=8109390a
DTITLE=Lindsey Buckingham  - Gift Of Screws  
DYEAR=1900
DGENRE=
TTITLE0=Great Day
TTITLE1=Time Precious Time
TTITLE2=Did You Miss Me
TTITLE3=Wait for You
TTITLE4=Love Runs Deeper
TTITLE5=Bel Air Rain
TTITLE6=The Right Place To Fade
TTITLE7=Gift of Screws
TTITLE8=Underground
TTITLE9=Treason
EXTD=
EXTT0=
EXTT1=
EXTT2=
EXTT3=
EXTT4=
EXTT5=
EXTT6=
EXTT7=
EXTT8=
EXTT9=
PLAYORDER=
